<svg width="23" height="23" viewBox="0 0 23 23" fill="none" xmlns="http://www.w3.org/2000/svg">
<circle cx="11.5" cy="11.5" r="11.5" fill="#3369FF"/>
<path d="M16.7312 13.7101L16.0444 12.57C15.9002 12.3159 15.7697 11.8352 15.7697 11.5536V9.816C15.7697 8.20204 14.8219 6.80785 13.4552 6.1554C13.0981 5.52355 12.4388 5.13208 11.6833 5.13208C10.9347 5.13208 10.2617 5.53729 9.90454 6.176C8.56529 6.84219 7.63812 8.22264 7.63812 9.816V11.5536C7.63812 11.8352 7.50763 12.3159 7.36341 12.5632L6.66975 13.7101C6.39503 14.1703 6.33322 14.6785 6.50492 15.1455C6.66975 15.6057 7.06122 15.9628 7.56944 16.1345C8.90182 16.5878 10.3029 16.8075 11.7039 16.8075C13.105 16.8075 14.506 16.5878 15.8384 16.1414C16.3191 15.9834 16.69 15.6194 16.8686 15.1455C17.0471 14.6716 16.9991 14.1497 16.7312 13.7101Z" fill="white"/>
<path d="M13.6337 17.5013C13.3452 18.2979 12.5829 18.868 11.6901 18.868C11.1475 18.868 10.6118 18.6482 10.2341 18.2567C10.0143 18.0507 9.84945 17.776 9.7533 17.4944C9.84258 17.5081 9.93186 17.515 10.028 17.5287C10.186 17.5493 10.3508 17.5699 10.5156 17.5837C10.9071 17.618 11.3055 17.6386 11.7038 17.6386C12.0953 17.6386 12.4867 17.618 12.8713 17.5837C13.0156 17.5699 13.1598 17.5631 13.2971 17.5425C13.407 17.5287 13.5169 17.515 13.6337 17.5013Z" fill="white"/>
</svg>
