<svg width="40" height="40" viewBox="0 0 40 40" fill="none" xmlns="http://www.w3.org/2000/svg">
<path d="M20 40C31.0457 40 40 31.0457 40 20C40 8.9543 31.0457 0 20 0C8.9543 0 0 8.9543 0 20C0 31.0457 8.9543 40 20 40Z" fill="#F26946"/>
<path d="M20 9.02399C17.8714 9.02379 15.7906 9.6548 14.0207 10.8372C12.2508 12.0196 10.8712 13.7004 10.0565 15.6669C9.2418 17.6333 9.02853 19.7972 9.44367 21.8849C9.85881 23.9726 10.8837 25.8903 12.3888 27.3955C13.8938 28.9007 15.8114 29.9258 17.8991 30.3411C19.9867 30.7565 22.1507 30.5434 24.1172 29.7289C26.0838 28.9144 27.7646 27.535 28.9472 25.7651C30.1298 23.9953 30.761 21.9146 30.761 19.786C30.761 16.9319 29.6273 14.1947 27.6092 12.1765C25.5912 10.1582 22.8541 9.02425 20 9.02399ZM20 25.391C19.7783 25.391 19.5616 25.3252 19.3772 25.2021C19.1929 25.0789 19.0492 24.9038 18.9643 24.699C18.8795 24.4941 18.8573 24.2687 18.9005 24.0513C18.9438 23.8338 19.0506 23.6341 19.2073 23.4773C19.3641 23.3205 19.5639 23.2138 19.7813 23.1705C19.9988 23.1273 20.2242 23.1495 20.429 23.2343C20.6338 23.3192 20.8089 23.4628 20.9321 23.6472C21.0553 23.8315 21.121 24.0483 21.121 24.27C21.121 24.5673 21.0029 24.8524 20.7927 25.0627C20.5824 25.2729 20.2973 25.391 20 25.391ZM21.758 20.074C21.4763 20.3115 21.2539 20.6114 21.1084 20.9499C20.9629 21.2884 20.8984 21.6562 20.92 22.024H19.12C19.0353 21.4382 19.1097 20.8404 19.3354 20.2932C19.5612 19.7461 19.9299 19.2697 20.403 18.914C20.917 18.426 21.322 18.04 21.266 17.281C21.2439 16.9749 21.1041 16.6893 20.8758 16.4842C20.6476 16.279 20.3487 16.1704 20.042 16.181C19.406 16.181 18.663 16.654 18.663 17.986H16.863C16.863 15.834 18.127 14.444 20.083 14.444C20.5019 14.428 20.9198 14.4955 21.3124 14.6425C21.705 14.7894 22.0645 15.0129 22.37 15.3C22.6307 15.5746 22.8331 15.8991 22.9651 16.254C23.0971 16.6089 23.1559 16.9868 23.138 17.365C23.0512 18.4141 22.5556 19.387 21.758 20.074Z" fill="white"/>
</svg>
