<svg width="40" height="40" viewBox="0 0 40 40" fill="none" xmlns="http://www.w3.org/2000/svg">
<g clip-path="url(#clip0_1_228)">
<path d="M20 40C31.0457 40 40 31.0457 40 20C40 8.9543 31.0457 0 20 0C8.9543 0 0 8.9543 0 20C0 31.0457 8.9543 40 20 40Z" fill="#469F81"/>
<path fill-rule="evenodd" clip-rule="evenodd" d="M20.6892 16.9959C20.6892 15.862 20.3151 14.7597 19.6248 13.8601C18.9345 12.9605 17.9667 12.3139 16.8714 12.0204C15.7761 11.7269 14.6146 11.803 13.567 12.237C12.5194 12.6709 11.6443 13.4384 11.0773 14.4204C10.5104 15.4024 10.2833 16.544 10.4313 17.6682C10.5793 18.7924 11.0941 19.8364 11.8959 20.6382C12.6977 21.44 13.7417 21.9548 14.8659 22.1028C15.9901 22.2508 17.1317 22.0237 18.1137 21.4568L20.9422 23.0898L22.7069 22.6191L23.173 24.3778L24.9188 23.8961L25.3996 25.6633L28.9305 24.6996L28.3284 21.4064L20.6892 16.9959ZM14.3196 14.8044C14.0986 14.678 13.8452 14.6199 13.5913 14.6374C13.3374 14.6549 13.0943 14.7473 12.8928 14.9028C12.6914 15.0584 12.5405 15.2701 12.4593 15.5113C12.378 15.7525 12.3701 16.0124 12.4364 16.2581C12.5028 16.5039 12.6405 16.7244 12.8321 16.892C13.0237 17.0595 13.2606 17.1665 13.513 17.1995C13.7654 17.2325 14.0219 17.19 14.2501 17.0773C14.4784 16.9646 14.6681 16.7868 14.7953 16.5664C14.8801 16.4195 14.9351 16.2574 14.957 16.0893C14.979 15.9211 14.9676 15.7503 14.9234 15.5866C14.8792 15.4229 14.8031 15.2695 14.6995 15.1353C14.5958 15.0011 14.4667 14.8887 14.3196 14.8044Z" fill="white"/>
</g>
<defs>
<clipPath id="clip0_1_228">
<rect width="40" height="40" fill="white"/>
</clipPath>
</defs>
</svg>
