<svg width="40" height="40" viewBox="0 0 40 40" fill="none" xmlns="http://www.w3.org/2000/svg">
<path d="M20 40C31.0457 40 40 31.0457 40 20C40 8.9543 31.0457 0 20 0C8.9543 0 0 8.9543 0 20C0 31.0457 8.9543 40 20 40Z" fill="#6D43D9"/>
<path fill-rule="evenodd" clip-rule="evenodd" d="M31.381 27.6789H28.536L29.484 24.8339H30.432L31.381 27.6789ZM19.074 23.3709L27.587 19.0319V24.8319C26.632 26.7679 22.269 27.6769 19.526 27.6769C16.515 27.6769 12.518 26.7339 11.465 24.8319V18.5609L19.074 23.3709ZM30.432 23.8859H29.484V16.9999L19.124 22.2809L8.61902 15.6419L20 10.6079L30.432 16.5179V23.8859Z" fill="white"/>
</svg>
