<svg width="23" height="205" viewBox="0 0 23 205" fill="none" xmlns="http://www.w3.org/2000/svg">
<path d="M13.633 0.171692H9.36707V159H13.633V0.171692Z" fill="#3369FF"/>
<g clip-path="url(#clip0_1_17)">
<path d="M11.5 23C17.8513 23 23 17.8513 23 11.5C23 5.14873 17.8513 0 11.5 0C5.14873 0 0 5.14873 0 11.5C0 17.8513 5.14873 23 11.5 23Z" fill="#3369FF"/>
<path d="M11.5007 14.6409C12.0292 14.6409 12.4577 14.2125 12.4577 13.6839C12.4577 13.1554 12.0292 12.7269 11.5007 12.7269C10.9722 12.7269 10.5437 13.1554 10.5437 13.6839C10.5437 14.2125 10.9722 14.6409 11.5007 14.6409Z" fill="white"/>
<path d="M14.2301 9.99697H8.76988C8.72291 9.99697 8.68182 9.99697 8.63485 9.99697V9.31591C8.63485 7.59564 9.12216 6.45075 11.5 6.45075C14.0422 6.45075 14.3652 7.68958 14.3652 8.76988C14.3652 8.99886 14.5472 9.18087 14.7761 9.18087C15.0051 9.18087 15.1871 8.99886 15.1871 8.76988C15.1871 6.6856 13.9483 5.62878 11.5 5.62878C8.19451 5.62878 7.81288 7.73068 7.81288 9.31591V10.0498C6.16894 10.2553 5.62878 11.089 5.62878 13.1381V14.2301C5.62878 16.6373 6.36269 17.3712 8.76988 17.3712H14.2301C16.6373 17.3712 17.3712 16.6373 17.3712 14.2301V13.1381C17.3712 10.7309 16.6373 9.99697 14.2301 9.99697ZM11.5 15.4572C10.5195 15.4572 9.72689 14.6587 9.72689 13.6841C9.72689 12.7036 10.5254 11.911 11.5 11.911C12.4746 11.911 13.2731 12.7095 13.2731 13.6841C13.2731 14.6646 12.4805 15.4572 11.5 15.4572Z" fill="white"/>
</g>
<g clip-path="url(#clip1_1_17)">
<path d="M11.5 95C17.8513 95 23 89.8513 23 83.5C23 77.1487 17.8513 72 11.5 72C5.14873 72 0 77.1487 0 83.5C0 89.8513 5.14873 95 11.5 95Z" fill="#3369FF"/>
<path d="M16.7312 85.7101L16.0444 84.57C15.9002 84.3159 15.7697 83.8352 15.7697 83.5536V81.816C15.7697 80.202 14.8219 78.8078 13.4552 78.1554C13.0981 77.5235 12.4388 77.1321 11.6833 77.1321C10.9347 77.1321 10.2617 77.5373 9.90454 78.176C8.56529 78.8422 7.63812 80.2226 7.63812 81.816V83.5536C7.63812 83.8352 7.50763 84.3159 7.36341 84.5632L6.66975 85.7101C6.39503 86.1703 6.33322 86.6785 6.50492 87.1455C6.66975 87.6057 7.06122 87.9628 7.56944 88.1345C8.90182 88.5878 10.3029 88.8075 11.7039 88.8075C13.105 88.8075 14.506 88.5878 15.8384 88.1414C16.3191 87.9834 16.69 87.6194 16.8686 87.1455C17.0471 86.6716 16.9991 86.1497 16.7312 85.7101Z" fill="white"/>
<path d="M13.6337 89.5013C13.3452 90.2979 12.5829 90.868 11.6901 90.868C11.1475 90.868 10.6118 90.6482 10.2341 90.2567C10.0143 90.0507 9.84945 89.776 9.7533 89.4944C9.84258 89.5081 9.93186 89.515 10.028 89.5287C10.186 89.5493 10.3508 89.5699 10.5156 89.5837C10.9071 89.618 11.3055 89.6386 11.7038 89.6386C12.0953 89.6386 12.4867 89.618 12.8713 89.5837C13.0156 89.5699 13.1598 89.5631 13.2971 89.5425C13.407 89.5287 13.5169 89.515 13.6337 89.5013Z" fill="white"/>
</g>
<path d="M13.2659 159H9V204.766H13.2659V159Z" fill="url(#paint0_linear_1_17)"/>
<g clip-path="url(#clip2_1_17)">
<path d="M11.5 166C17.8513 166 23 160.851 23 154.5C23 148.149 17.8513 143 11.5 143C5.14873 143 0 148.149 0 154.5C0 160.851 5.14873 166 11.5 166Z" fill="#3369FF"/>
</g>
<path d="M12.6115 149.028L13.739 151.298C13.891 151.612 14.2988 151.91 14.6426 151.974L16.6817 152.312C17.9851 152.53 18.289 153.48 17.3534 154.43L15.7621 156.032C15.4982 156.297 15.3463 156.82 15.4343 157.199L15.8901 159.179C16.2499 160.741 15.4183 161.353 14.0509 160.532L12.1397 159.388C11.7959 159.179 11.2201 159.179 10.8763 159.388L8.96515 160.532C7.59772 161.345 6.76609 160.741 7.12593 159.179L7.58173 157.199C7.6537 156.812 7.50176 156.289 7.23788 156.023L5.64659 154.422C4.71101 153.48 5.01487 152.53 6.31829 152.304L8.35742 151.966C8.70127 151.91 9.10909 151.604 9.26102 151.29L10.3885 149.02C11.0042 147.796 11.9958 147.796 12.6115 149.028Z" fill="white"/>
<defs>
<linearGradient id="paint0_linear_1_17" x1="11.133" y1="159" x2="11.133" y2="204.766" gradientUnits="userSpaceOnUse">
<stop stop-color="#24CB85"/>
<stop offset="1" stop-color="#23CA84" stop-opacity="0"/>
</linearGradient>
<clipPath id="clip0_1_17">
<rect width="23" height="23" fill="white"/>
</clipPath>
<clipPath id="clip1_1_17">
<rect width="23" height="23" fill="white" transform="translate(0 72)"/>
</clipPath>
<clipPath id="clip2_1_17">
<rect width="23" height="23" fill="white" transform="translate(0 143)"/>
</clipPath>
</defs>
</svg>
