<svg width="23" height="23" viewBox="0 0 23 23" fill="none" xmlns="http://www.w3.org/2000/svg">
<circle cx="11.5" cy="11.5" r="11.5" fill="#3369FF"/>
<path d="M11.5007 14.6409C12.0292 14.6409 12.4577 14.2125 12.4577 13.6839C12.4577 13.1554 12.0292 12.7269 11.5007 12.7269C10.9722 12.7269 10.5437 13.1554 10.5437 13.6839C10.5437 14.2125 10.9722 14.6409 11.5007 14.6409Z" fill="white"/>
<path d="M14.2301 9.99697H8.76988C8.72291 9.99697 8.68182 9.99697 8.63485 9.99697V9.31591C8.63485 7.59564 9.12216 6.45075 11.5 6.45075C14.0422 6.45075 14.3652 7.68958 14.3652 8.76988C14.3652 8.99886 14.5472 9.18087 14.7761 9.18087C15.0051 9.18087 15.1871 8.99886 15.1871 8.76988C15.1871 6.6856 13.9483 5.62878 11.5 5.62878C8.19451 5.62878 7.81288 7.73068 7.81288 9.31591V10.0498C6.16894 10.2553 5.62878 11.089 5.62878 13.1381V14.2301C5.62878 16.6373 6.36269 17.3712 8.76988 17.3712H14.2301C16.6373 17.3712 17.3712 16.6373 17.3712 14.2301V13.1381C17.3712 10.7309 16.6373 9.99697 14.2301 9.99697ZM11.5 15.4572C10.5195 15.4572 9.72689 14.6587 9.72689 13.6841C9.72689 12.7036 10.5254 11.911 11.5 11.911C12.4746 11.911 13.2731 12.7095 13.2731 13.6841C13.2731 14.6646 12.4805 15.4572 11.5 15.4572Z" fill="white"/>
</svg>
