<svg width="23" height="23" viewBox="0 0 23 23" fill="none" xmlns="http://www.w3.org/2000/svg">
<circle cx="11.5" cy="11.5" r="11.5" fill="#3369FF"/>
<path d="M12.6115 6.02802L13.739 8.29813C13.891 8.61208 14.2988 8.90994 14.6426 8.97434L16.6817 9.31244C17.9851 9.52979 18.289 10.4797 17.3534 11.4296L15.7621 13.0316C15.4982 13.2972 15.3463 13.8205 15.4343 14.1988L15.8901 16.1792C16.2499 17.7409 15.4183 18.3527 14.0509 17.5316L12.1397 16.3885C11.7959 16.1792 11.2201 16.1792 10.8763 16.3885L8.96515 17.5316C7.59772 18.3446 6.76609 17.7409 7.12593 16.1792L7.58173 14.1988C7.6537 13.8124 7.50176 13.2892 7.23788 13.0235L5.64659 11.4216C4.71101 10.4797 5.01487 9.52979 6.31829 9.30439L8.35742 8.96629C8.70127 8.90993 9.10909 8.60403 9.26102 8.29008L10.3885 6.01997C11.0042 4.79637 11.9958 4.79637 12.6115 6.02802Z" fill="white"/>
</svg>
