<svg width="40" height="40" viewBox="0 0 40 40" fill="none" xmlns="http://www.w3.org/2000/svg">
<g clip-path="url(#clip0_1_218)">
<path d="M20 40C31.0457 40 40 31.0457 40 20C40 8.9543 31.0457 0 20 0C8.9543 0 0 8.9543 0 20C0 31.0457 8.9543 40 20 40Z" fill="#CF2233"/>
<path fill-rule="evenodd" clip-rule="evenodd" d="M21.875 29.5239L20.885 30.1759C20.742 30.2966 20.5601 30.3613 20.373 30.3579H19.627C19.4396 30.3612 19.2574 30.2966 19.114 30.1759L18.125 29.5239H21.875ZM21.91 27.8569C21.9664 27.8542 22.0228 27.8629 22.0757 27.8826C22.1287 27.9023 22.1771 27.9325 22.218 27.9714C22.2589 28.0104 22.2914 28.0572 22.3137 28.1091C22.3359 28.1611 22.3474 28.217 22.3474 28.2734C22.3474 28.3299 22.3359 28.3858 22.3137 28.4377C22.2914 28.4896 22.2589 28.5365 22.218 28.5754C22.1771 28.6144 22.1287 28.6446 22.0757 28.6643C22.0228 28.684 21.9664 28.6927 21.91 28.6899H18.11C18.0536 28.6927 17.9972 28.684 17.9443 28.6643C17.8913 28.6446 17.8429 28.6144 17.802 28.5754C17.7611 28.5365 17.7286 28.4896 17.7063 28.4377C17.6841 28.3858 17.6726 28.3299 17.6726 28.2734C17.6726 28.217 17.6841 28.1611 17.7063 28.1091C17.7286 28.0572 17.7611 28.0104 17.802 27.9714C17.8429 27.9325 17.8913 27.9023 17.9443 27.8826C17.9972 27.8629 18.0536 27.8542 18.11 27.8569H21.91ZM22.322 27.0239H17.678C17.678 23.7329 15 22.3079 15 19.3339C14.9954 18.6848 15.123 18.0415 15.3751 17.4433C15.6272 16.8451 15.9985 16.3045 16.4663 15.8544C16.9341 15.4043 17.4887 15.0543 18.0962 14.8255C18.7038 14.5968 19.3515 14.4942 20 14.5239C20.6483 14.4949 21.2957 14.598 21.903 14.827C22.5102 15.056 23.0645 15.4061 23.5321 15.856C23.9998 16.3059 24.3711 16.8463 24.6235 17.4441C24.8758 18.042 25.0039 18.685 25 19.3339C25 22.3079 22.322 23.6869 22.322 27.0239ZM26.45 20.9999L28.699 22.0199L28.01 23.5379L25.846 22.5569C26.099 22.0599 26.3001 21.5382 26.446 20.9999M13.546 20.9999C13.6902 21.5391 13.8914 22.0613 14.146 22.5579L11.986 23.5379L11.297 22.0199L13.546 20.9999ZM26.51 17.8569H29.167V19.5239H26.667C26.6841 18.9639 26.6313 18.4039 26.51 17.8569ZM13.489 17.8569C13.3697 18.4029 13.3173 18.9613 13.333 19.5199H10.833V17.8569H13.489ZM25.033 14.9999L27.104 13.5309L28.069 14.8899L25.984 16.3709C25.7317 15.8723 25.4116 15.411 25.033 14.9999ZM14.961 14.9999C14.5838 15.4114 14.2648 15.8727 14.013 16.3709L11.933 14.8899L12.893 13.5309L14.961 14.9999ZM22.354 13.2569L23.46 11.0149L24.954 11.7529L23.848 13.9939C23.3821 13.6879 22.8804 13.4404 22.354 13.2569ZM17.645 13.2569C17.1182 13.44 16.616 13.6875 16.15 13.9939L15.045 11.7569L16.54 11.0149L17.645 13.2569ZM20.833 12.9079C20.2793 12.8425 19.7197 12.8425 19.166 12.9079V10.3569H20.833V12.9079Z" fill="white"/>
</g>
<defs>
<clipPath id="clip0_1_218">
<rect width="40" height="40" fill="white"/>
</clipPath>
</defs>
</svg>
